<?xml version="1.0" encoding="utf-8"?>
<!DOCTYPE svg PUBLIC "-//W3C//DTD SVG 1.1//EN" "http://www.w3.org/Graphics/SVG/1.1/DTD/svg11.dtd">
<svg version="1.1" baseProfile="full"
 xmlns="http://www.w3.org/2000/svg"
 xmlns:xlink="http://www.w3.org/1999/xlink"
 xmlns:ev="http://www.w3.org/2001/xml-events" 
  height="37px" 
  width="75px" 
>
<path fill="rgb( 255, 255, 255 )" stroke="#F06C5F" stroke-width="2px"
 d="M67.654,9.92299999999977 C65.003,9.92299999999977 62.854,7.77300000000014 62.854,5.12199999999984 C62.854,2.47200000000021 65.003,0.32200000000012 67.654,0.32200000000012 C70.305,0.32200000000012 72.454,2.47200000000021 72.454,5.12199999999984 C72.454,7.77300000000014 70.305,9.92299999999977 67.654,9.92299999999977 ZM44.987,29.7559999999999 C42.336,29.7559999999999 40.187,27.607 40.187,24.9560000000001 C40.187,22.3049999999998 42.336,20.1559999999999 44.987,20.1559999999999 C47.638,20.1559999999999 49.787,22.3049999999998 49.787,24.9560000000001 C49.787,27.607 47.638,29.7559999999999 44.987,29.7559999999999 ZM27.987,14.7559999999999 C25.336,14.7559999999999 23.187,12.607 23.187,9.95600000000013 C23.187,7.30499999999984 25.336,5.15599999999995 27.987,5.15599999999995 C30.638,5.15599999999995 32.787,7.30499999999984 32.787,9.95600000000013 C32.787,12.607 30.638,14.7559999999999 27.987,14.7559999999999 ZM5.48699999999997,34.5889999999999 C2.83600000000001,34.5889999999999 0.68700000000001,32.4400000000001 0.68700000000001,29.7890000000002 C0.68700000000001,27.1379999999999 2.83600000000001,24.989 5.48699999999997,24.989 C8.13800000000003,24.989 10.287,27.1379999999999 10.287,29.7890000000002 C10.287,32.4400000000001 8.13800000000003,34.5889999999999 5.48699999999997,34.5889999999999 Z "/>
</svg>
