<?xml version="1.0" encoding="utf-8"?>
<!DOCTYPE svg PUBLIC "-//W3C//DTD SVG 1.1//EN" "http://www.w3.org/Graphics/SVG/1.1/DTD/svg11.dtd">
<svg version="1.1" baseProfile="full"
 xmlns="http://www.w3.org/2000/svg"
 xmlns:xlink="http://www.w3.org/1999/xlink"
 xmlns:ev="http://www.w3.org/2001/xml-events" 
  height="29px" 
  width="64px" 
>
<path fill="rgb( 240, 108, 95 )"
 d="M63.921,2.24200000000019 C63.921,2.24200000000019 41.133,22.6480000000001 41.133,22.6480000000001 C41.133,22.6480000000001 40.713,23.1239999999998 40.713,23.1239999999998 C40.713,23.1239999999998 40.657,23.0749999999998 40.657,23.0749999999998 C40.657,23.0749999999998 40.6079999999999,23.1190000000001 40.6079999999999,23.1190000000001 C40.6079999999999,23.1190000000001 40.232,22.6999999999998 40.232,22.6999999999998 C40.232,22.6999999999998 23.8339999999999,8.21599999999989 23.8339999999999,8.21599999999989 C23.8339999999999,8.21599999999989 1.60799999999995,28.1190000000001 1.60799999999995,28.1190000000001 C1.60799999999995,28.1190000000001 0.27300000000002,26.6289999999999 0.27300000000002,26.6289999999999 C0.27300000000002,26.6289999999999 23.587,5.75300000000016 23.587,5.75300000000016 C23.587,5.75300000000016 23.918,6.12300000000005 23.918,6.12300000000005 C23.918,6.12300000000005 24.167,5.8420000000001 24.167,5.8420000000001 C24.167,5.8420000000001 40.648,20.3980000000001 40.648,20.3980000000001 C40.648,20.3980000000001 62.587,0.75300000000016 62.587,0.75300000000016 C62.587,0.75300000000016 63.921,2.24200000000019 63.921,2.24200000000019 Z "/>
</svg>
