<?xml version="1.0" encoding="utf-8"?>
<!DOCTYPE svg PUBLIC "-//W3C//DTD SVG 1.1//EN" "http://www.w3.org/Graphics/SVG/1.1/DTD/svg11.dtd">
<svg version="1.1" baseProfile="full"
 xmlns="http://www.w3.org/2000/svg"
 xmlns:xlink="http://www.w3.org/1999/xlink"
 xmlns:ev="http://www.w3.org/2001/xml-events" 
  height="51px" 
  width="75px" 
>
<path fill="rgb( 255, 255, 255 )" stroke="#F06C5F" stroke-width="2px"
 d="M36.6369999999999,0.07400000000007 C50.131,0.07400000000007 61.071,11.0129999999999 61.071,24.5079999999998 C61.071,38.002 50.131,48.9409999999998 36.6369999999999,48.9409999999998 C23.143,48.9409999999998 12.204,38.002 12.204,24.5079999999998 C12.204,11.0129999999999 23.143,0.07400000000007 36.6369999999999,0.07400000000007 Z "/>
<path fill="rgb( 240, 108, 95 )"
 d="M67.921,12.2420000000002 C67.921,12.2420000000002 45.133,32.6480000000001 45.133,32.6480000000001 C45.133,32.6480000000001 44.713,33.1239999999998 44.713,33.1239999999998 C44.713,33.1239999999998 44.657,33.0749999999998 44.657,33.0749999999998 C44.657,33.0749999999998 44.6079999999999,33.1190000000001 44.6079999999999,33.1190000000001 C44.6079999999999,33.1190000000001 44.232,32.6999999999998 44.232,32.6999999999998 C44.232,32.6999999999998 27.8339999999999,18.2159999999999 27.8339999999999,18.2159999999999 C27.8339999999999,18.2159999999999 5.60799999999995,38.1190000000001 5.60799999999995,38.1190000000001 C5.60799999999995,38.1190000000001 4.27300000000002,36.6289999999999 4.27300000000002,36.6289999999999 C4.27300000000002,36.6289999999999 27.587,15.7530000000002 27.587,15.7530000000002 C27.587,15.7530000000002 27.918,16.123 27.918,16.123 C27.918,16.123 28.167,15.8420000000001 28.167,15.8420000000001 C28.167,15.8420000000001 44.648,30.3980000000001 44.648,30.3980000000001 C44.648,30.3980000000001 66.587,10.7530000000002 66.587,10.7530000000002 C66.587,10.7530000000002 67.921,12.2420000000002 67.921,12.2420000000002 Z "/>
<path fill="rgb( 255, 255, 255 )"  stroke="#F06C5F" stroke-width="2px"
 d="M67.654,16.9229999999998 C65.003,16.9229999999998 62.854,14.7730000000001 62.854,12.1219999999998 C62.854,9.47200000000021 65.003,7.32200000000012 67.654,7.32200000000012 C70.305,7.32200000000012 72.454,9.47200000000021 72.454,12.1219999999998 C72.454,14.7730000000001 70.305,16.9229999999998 67.654,16.9229999999998 ZM44.987,36.7559999999999 C42.336,36.7559999999999 40.187,34.607 40.187,31.9560000000001 C40.187,29.3049999999998 42.336,27.1559999999999 44.987,27.1559999999999 C47.638,27.1559999999999 49.787,29.3049999999998 49.787,31.9560000000001 C49.787,34.607 47.638,36.7559999999999 44.987,36.7559999999999 ZM27.987,21.7559999999999 C25.336,21.7559999999999 23.187,19.607 23.187,16.9560000000001 C23.187,14.3049999999998 25.336,12.1559999999999 27.987,12.1559999999999 C30.638,12.1559999999999 32.787,14.3049999999998 32.787,16.9560000000001 C32.787,19.607 30.638,21.7559999999999 27.987,21.7559999999999 ZM5.48699999999997,41.5889999999999 C2.83600000000001,41.5889999999999 0.68700000000001,39.4400000000001 0.68700000000001,36.7890000000002 C0.68700000000001,34.1379999999999 2.83600000000001,31.989 5.48699999999997,31.989 C8.13800000000003,31.989 10.287,34.1379999999999 10.287,36.7890000000002 C10.287,39.4400000000001 8.13800000000003,41.5889999999999 5.48699999999997,41.5889999999999 Z "/>
</svg>
