<?xml version="1.0" encoding="utf-8"?>
<!DOCTYPE svg PUBLIC "-//W3C//DTD SVG 1.1//EN" "http://www.w3.org/Graphics/SVG/1.1/DTD/svg11.dtd">
<svg version="1.1" baseProfile="full"
 xmlns="http://www.w3.org/2000/svg"
 xmlns:xlink="http://www.w3.org/1999/xlink"
 xmlns:ev="http://www.w3.org/2001/xml-events" 
  height="22px" 
  width="24px" 
>
<path fill="rgb( 255, 255, 255 )"
 d="M23.5410000000001,0.30699999999979 C23.439,0.2170000000001 23.293,0.19700000000012 23.17,0.25399999999991 C23.17,0.25399999999991 0.88499999999999,10.6010000000001 0.88499999999999,10.6010000000001 C0.76499999999999,10.6570000000002 0.68799999999999,10.7759999999998 0.68700000000001,10.9090000000001 C0.68499999999995,11.0410000000002 0.75999999999999,11.1619999999998 0.87900000000002,11.2199999999998 C0.87900000000002,11.2199999999998 7.18499999999995,14.3139999999999 7.18499999999995,14.3139999999999 C7.30100000000004,14.3699999999999 7.43899999999996,14.357 7.54200000000003,14.2809999999999 C7.54200000000003,14.2809999999999 13.674,9.69999999999982 13.674,9.69999999999982 C13.674,9.69999999999982 8.86000000000001,14.6480000000001 8.86000000000001,14.6480000000001 C8.79200000000003,14.7190000000001 8.75599999999997,14.8159999999998 8.76400000000001,14.9140000000002 C8.76400000000001,14.9140000000002 9.24300000000005,21.152 9.24300000000005,21.152 C9.25400000000002,21.29 9.34699999999998,21.4079999999999 9.47799999999995,21.451 C9.51400000000001,21.4639999999999 9.54999999999995,21.4679999999998 9.58600000000001,21.4679999999998 C9.68399999999997,21.4679999999998 9.779,21.4270000000001 9.846,21.3499999999999 C9.846,21.3499999999999 13.193,17.473 13.193,17.473 C13.193,17.473 17.331,19.4490000000001 17.331,19.4490000000001 C17.421,19.4920000000002 17.525,19.4940000000001 17.616,19.4540000000002 C17.707,19.4140000000002 17.777,19.337 17.807,19.2429999999999 C17.807,19.2429999999999 23.6420000000001,0.66800000000012 23.6420000000001,0.66800000000012 C23.683,0.53800000000001 23.643,0.39600000000019 23.5410000000001,0.30699999999979 Z "/>
</svg>
