<?xml version="1.0" encoding="utf-8"?>
<!DOCTYPE svg PUBLIC "-//W3C//DTD SVG 1.1//EN" "http://www.w3.org/Graphics/SVG/1.1/DTD/svg11.dtd">
<svg version="1.1" baseProfile="full"
 xmlns="http://www.w3.org/2000/svg"
 xmlns:xlink="http://www.w3.org/1999/xlink"
 xmlns:ev="http://www.w3.org/2001/xml-events" 
  height="27px" 
  width="24px" 
>
<path fill="rgb( 255, 255, 255 )"
 d="M21.301,26.0129999999999 C21.301,26.0129999999999 1.71199999999999,26.0129999999999 1.71199999999999,26.0129999999999 C0.76700000000005,26.0129999999999 0,25.2389999999996 0,24.2839999999997 C0,24.2839999999997 0,5.75399999999991 0,5.75399999999991 C0,4.80000000000018 0.76700000000005,4.02599999999984 1.71199999999999,4.02599999999984 C1.71199999999999,4.02599999999984 3.596,4.02599999999984 3.596,4.02599999999984 C3.596,4.02599999999984 3.596,2.72800000000007 3.596,2.72800000000007 C3.596,1.77300000000014 4.36199999999997,0.9989999999998 5.30799999999999,0.9989999999998 C5.30799999999999,0.9989999999998 5.37699999999995,0.9989999999998 5.37699999999995,0.9989999999998 C6.322,0.9989999999998 7.08900000000006,1.77300000000014 7.08900000000006,2.72800000000007 C7.08900000000006,2.72800000000007 7.08900000000006,4.02599999999984 7.08900000000006,4.02599999999984 C7.08900000000006,4.02599999999984 15.924,4.02599999999984 15.924,4.02599999999984 C15.924,4.02599999999984 15.924,2.72800000000007 15.924,2.72800000000007 C15.924,1.77300000000014 16.691,0.9989999999998 17.636,0.9989999999998 C17.636,0.9989999999998 17.705,0.9989999999998 17.705,0.9989999999998 C18.651,0.9989999999998 19.417,1.77300000000014 19.417,2.72800000000007 C19.417,2.72800000000007 19.417,4.02599999999984 19.417,4.02599999999984 C19.417,4.02599999999984 21.301,4.02599999999984 21.301,4.02599999999984 C22.246,4.02599999999984 23.013,4.80000000000018 23.013,5.75399999999991 C23.013,5.75399999999991 23.013,24.2839999999997 23.013,24.2839999999997 C23.013,25.2389999999996 22.246,26.0129999999999 21.301,26.0129999999999 ZM20.136,9.24600000000009 C20.136,9.24600000000009 2.87699999999995,9.24600000000009 2.87699999999995,9.24600000000009 C2.87699999999995,9.24600000000009 2.87699999999995,23.2820000000002 2.87699999999995,23.2820000000002 C2.87699999999995,23.2820000000002 20.136,23.2820000000002 20.136,23.2820000000002 C20.136,23.2820000000002 20.136,9.24600000000009 20.136,9.24600000000009 ZM5.22299999999996,12.0370000000003 C5.22299999999996,12.0370000000003 8.202,12.0370000000003 8.202,12.0370000000003 C8.35299999999995,12.0370000000003 8.476,12.1610000000001 8.476,12.3130000000001 C8.476,12.3130000000001 8.476,15.3209999999999 8.476,15.3209999999999 C8.476,15.4740000000002 8.35299999999995,15.598 8.202,15.598 C8.202,15.598 5.22299999999996,15.598 5.22299999999996,15.598 C5.07100000000003,15.598 4.94899999999996,15.4740000000002 4.94899999999996,15.3209999999999 C4.94899999999996,15.3209999999999 4.94899999999996,12.3130000000001 4.94899999999996,12.3130000000001 C4.94899999999996,12.1610000000001 5.07100000000003,12.0370000000003 5.22299999999996,12.0370000000003 ZM5.22299999999996,16.8770000000004 C5.22299999999996,16.8770000000004 8.202,16.8770000000004 8.202,16.8770000000004 C8.35299999999995,16.8770000000004 8.476,17.0010000000002 8.476,17.1540000000005 C8.476,17.1540000000005 8.476,20.1610000000001 8.476,20.1610000000001 C8.476,20.3140000000003 8.35299999999995,20.4380000000001 8.202,20.4380000000001 C8.202,20.4380000000001 5.22299999999996,20.4380000000001 5.22299999999996,20.4380000000001 C5.07100000000003,20.4380000000001 4.94899999999996,20.3140000000003 4.94899999999996,20.1610000000001 C4.94899999999996,20.1610000000001 4.94899999999996,17.1540000000005 4.94899999999996,17.1540000000005 C4.94899999999996,17.0010000000002 5.07100000000003,16.8770000000004 5.22299999999996,16.8770000000004 ZM10.0170000000001,12.0370000000003 C10.0170000000001,12.0370000000003 12.996,12.0370000000003 12.996,12.0370000000003 C13.147,12.0370000000003 13.27,12.1610000000001 13.27,12.3130000000001 C13.27,12.3130000000001 13.27,15.3209999999999 13.27,15.3209999999999 C13.27,15.4740000000002 13.147,15.598 12.996,15.598 C12.996,15.598 10.0170000000001,15.598 10.0170000000001,15.598 C9.86599999999999,15.598 9.74300000000005,15.4740000000002 9.74300000000005,15.3209999999999 C9.74300000000005,15.3209999999999 9.74300000000005,12.3130000000001 9.74300000000005,12.3130000000001 C9.74300000000005,12.1610000000001 9.86599999999999,12.0370000000003 10.0170000000001,12.0370000000003 ZM10.0170000000001,16.8770000000004 C10.0170000000001,16.8770000000004 12.996,16.8770000000004 12.996,16.8770000000004 C13.147,16.8770000000004 13.27,17.0010000000002 13.27,17.1540000000005 C13.27,17.1540000000005 13.27,20.1610000000001 13.27,20.1610000000001 C13.27,20.3140000000003 13.147,20.4380000000001 12.996,20.4380000000001 C12.996,20.4380000000001 10.0170000000001,20.4380000000001 10.0170000000001,20.4380000000001 C9.86599999999999,20.4380000000001 9.74300000000005,20.3140000000003 9.74300000000005,20.1610000000001 C9.74300000000005,20.1610000000001 9.74300000000005,17.1540000000005 9.74300000000005,17.1540000000005 C9.74300000000005,17.0010000000002 9.86599999999999,16.8770000000004 10.0170000000001,16.8770000000004 ZM14.811,12.0370000000003 C14.811,12.0370000000003 17.7910000000001,12.0370000000003 17.7910000000001,12.0370000000003 C17.942,12.0370000000003 18.064,12.1610000000001 18.064,12.3130000000001 C18.064,12.3130000000001 18.064,15.3209999999999 18.064,15.3209999999999 C18.064,15.4740000000002 17.942,15.598 17.7910000000001,15.598 C17.7910000000001,15.598 14.811,15.598 14.811,15.598 C14.66,15.598 14.537,15.4740000000002 14.537,15.3209999999999 C14.537,15.3209999999999 14.537,12.3130000000001 14.537,12.3130000000001 C14.537,12.1610000000001 14.66,12.0370000000003 14.811,12.0370000000003 ZM14.811,16.8770000000004 C14.811,16.8770000000004 17.7910000000001,16.8770000000004 17.7910000000001,16.8770000000004 C17.942,16.8770000000004 18.064,17.0010000000002 18.064,17.1540000000005 C18.064,17.1540000000005 18.064,20.1610000000001 18.064,20.1610000000001 C18.064,20.3140000000003 17.942,20.4380000000001 17.7910000000001,20.4380000000001 C17.7910000000001,20.4380000000001 14.811,20.4380000000001 14.811,20.4380000000001 C14.66,20.4380000000001 14.537,20.3140000000003 14.537,20.1610000000001 C14.537,20.1610000000001 14.537,17.1540000000005 14.537,17.1540000000005 C14.537,17.0010000000002 14.66,16.8770000000004 14.811,16.8770000000004 Z "/>
</svg>
