<?xml version="1.0" encoding="utf-8"?>
<!DOCTYPE svg PUBLIC "-//W3C//DTD SVG 1.1//EN" "http://www.w3.org/Graphics/SVG/1.1/DTD/svg11.dtd">
<svg version="1.1" baseProfile="full"
 xmlns="http://www.w3.org/2000/svg"
 xmlns:xlink="http://www.w3.org/1999/xlink"
 xmlns:ev="http://www.w3.org/2001/xml-events" 
  height="71px" 
  width="62px" 
>
<defs>
<linearGradient id="PSgrad_0" x1="0%" x2="100%" y1="0%" y2="0%">
  <stop offset="0%" stop-color="rgb(184,52,99)" stop-opacity="0.6" />
  <stop offset="100%" stop-color="rgb(253,179,82)" stop-opacity="0.6" />
</linearGradient>

</defs><path fill="rgb( 184, 52, 99 )"
 d="M31.0069999999999,0.49800000000005 C31.0069999999999,0.49800000000005 61.1,17.8820000000001 61.1,17.8820000000001 C61.1,17.8820000000001 61.1,52.6509999999998 61.1,52.6509999999998 C61.1,52.6509999999998 31.0069999999999,70.0349999999999 31.0069999999999,70.0349999999999 C31.0069999999999,70.0349999999999 0.89700000000005,52.6509999999998 0.89700000000005,52.6509999999998 C0.89700000000005,52.6509999999998 0.89700000000005,17.8820000000001 0.89700000000005,17.8820000000001 C0.89700000000005,17.8820000000001 31.0069999999999,0.49800000000005 31.0069999999999,0.49800000000005 Z "/>
<path fill="url(#PSgrad_0)"
 d="M31.0069999999999,0.49800000000005 C31.0069999999999,0.49800000000005 61.1,17.8820000000001 61.1,17.8820000000001 C61.1,17.8820000000001 61.1,52.6509999999998 61.1,52.6509999999998 C61.1,52.6509999999998 31.0069999999999,70.0349999999999 31.0069999999999,70.0349999999999 C31.0069999999999,70.0349999999999 0.89700000000005,52.6509999999998 0.89700000000005,52.6509999999998 C0.89700000000005,52.6509999999998 0.89700000000005,17.8820000000001 0.89700000000005,17.8820000000001 C0.89700000000005,17.8820000000001 31.0069999999999,0.49800000000005 31.0069999999999,0.49800000000005 Z "/>
</svg>
