<?xml version="1.0" encoding="utf-8"?>
<!-- Generator: Adobe Illustrator 18.0.0, SVG Export Plug-In . SVG Version: 6.00 Build 0)  -->
<!DOCTYPE svg PUBLIC "-//W3C//DTD SVG 1.1//EN" "http://www.w3.org/Graphics/SVG/1.1/DTD/svg11.dtd">
<svg version="1.1" id="Layer_1" xmlns="http://www.w3.org/2000/svg" xmlns:xlink="http://www.w3.org/1999/xlink" x="0px" y="0px"
	 viewBox="0 0 32 32" enable-background="new 0 0 32 32" xml:space="preserve">
<path fill="#F06C5F" d="M16,32C7.2,32,0,24.8,0,16S7.2,0,16,0c8.8,0,16,7.2,16,16c0,3.9-2.1,8.2-3.5,10.1c-0.1,0.1-0.2,0.2-0.4,0.2
	c-0.2,0-0.3,0-0.4-0.2L27,25.4l-7.1-7.1c-0.2-0.2-0.2-0.5,0-0.7l1.3-1.3l-7.1-1.9l1.9,7.1l1.4-1.4c0.2-0.2,0.5-0.2,0.7,0l7.7,7.7
	c0.1,0.1,0.2,0.3,0.1,0.4c0,0.1-0.1,0.3-0.2,0.4C23.9,29.9,19.8,32,16,32z M16,1C7.8,1,1,7.8,1,16c0,8.3,6.7,15,15,15
	c3.2,0,6.7-1.7,8.6-2.8l-6.9-6.9l-1.6,1.6C16,23,15.8,23,15.6,23c-0.2,0-0.3-0.2-0.4-0.4l-2.4-8.8c0-0.2,0-0.4,0.1-0.5
	c0.1-0.1,0.3-0.2,0.5-0.1l8.8,2.4c0.2,0,0.3,0.2,0.4,0.4c0,0.2,0,0.4-0.1,0.5L21,18l7,7.1c1.3-2,3-5.6,3-9C31,7.8,24.3,1,16,1z"/>
<path fill="#F06C5F" d="M16,28.1C9.4,28.1,3.9,22.7,3.9,16C3.9,9.4,9.4,3.9,16,3.9c6.7,0,12.1,5.4,12.1,12.1c0,2.6-0.8,5.1-2.4,7.2
	c-0.2,0.2-0.5,0.3-0.7,0.1c-0.2-0.2-0.3-0.5-0.1-0.7c1.4-1.9,2.2-4.2,2.2-6.6C27.1,9.9,22.1,5,16,5C9.9,5,4.9,9.9,4.9,16
	c0,6.1,5,11.1,11.1,11.1c2.2,0,4.4-0.7,6.2-1.9c0.2-0.2,0.5-0.1,0.7,0.1c0.2,0.2,0.1,0.5-0.1,0.7C20.8,27.4,18.4,28.1,16,28.1z"/>
<path fill="#F06C5F" d="M16,24.3c-4.6,0-8.3-3.7-8.3-8.3c0-4.6,3.7-8.3,8.3-8.3c4.6,0,8.3,3.7,8.3,8.3c0,1.6-0.4,3.1-1.3,4.5
	c-0.1,0.2-0.5,0.3-0.7,0.2c-0.2-0.1-0.3-0.5-0.2-0.7c0.7-1.2,1.1-2.5,1.1-3.9c0-4-3.3-7.3-7.3-7.3c-4,0-7.3,3.3-7.3,7.3
	c0,4,3.3,7.3,7.3,7.3c1.2,0,2.4-0.3,3.5-0.9c0.2-0.1,0.5,0,0.7,0.2c0.1,0.2,0,0.5-0.2,0.7C18.8,24,17.4,24.3,16,24.3L16,24.3z"/>
</svg>
