<?xml version="1.0" encoding="utf-8"?>
<!DOCTYPE svg PUBLIC "-//W3C//DTD SVG 1.1//EN" "http://www.w3.org/Graphics/SVG/1.1/DTD/svg11.dtd">
<svg version="1.1" baseProfile="full"
 xmlns="http://www.w3.org/2000/svg"
 xmlns:xlink="http://www.w3.org/1999/xlink"
 xmlns:ev="http://www.w3.org/2001/xml-events" 
  height="19px" 
  width="20px" 
>
<path fill="#F06C5F"
 d="M0.976,18.915 C0.976,18.915 5.02000000000001,18.915 5.02000000000001,18.915 C5.02000000000001,18.915 5.02000000000001,6.751 5.02000000000001,6.751 C5.02000000000001,6.751 0.976,6.751 0.976,6.751 C0.976,6.751 0.976,18.915 0.976,18.915 ZM3.02500000000001,0.886 C1.642,0.886 0.73699999999999,1.795 0.73699999999999,2.988 C0.73699999999999,4.156 1.61500000000001,5.09 2.97200000000001,5.09 C2.97200000000001,5.09 2.99799999999999,5.09 2.99799999999999,5.09 C4.40799999999999,5.09 5.285,4.156 5.285,2.988 C5.25899999999999,1.795 4.40799999999999,0.886 3.02500000000001,0.886 ZM19.6,11.94 C19.6,8.204 17.605,6.465 14.945,6.465 C12.794,6.465 11.837,7.648 11.301,8.477 C11.301,8.477 11.301,6.751 11.301,6.751 C11.301,6.751 7.25700000000001,6.751 7.25700000000001,6.751 C7.31,7.892 7.25700000000001,18.915 7.25700000000001,18.915 C7.25700000000001,18.915 11.301,18.915 11.301,18.915 C11.301,18.915 11.301,12.122 11.301,12.122 C11.301,11.758 11.327,11.395 11.434,11.135 C11.726,10.409 12.391,9.657 13.508,9.657 C14.972,9.657 15.556,10.772 15.556,12.407 C15.556,12.407 15.556,18.915 15.556,18.915 C15.556,18.915 19.6,18.915 19.6,18.915 C19.6,18.915 19.6,11.94 19.6,11.94 ZM11.273,8.515 C11.281,8.503 11.293,8.489 11.301,8.477 C11.301,8.477 11.301,8.515 11.301,8.515 C11.301,8.515 11.273,8.515 11.273,8.515 Z "/>
</svg>
