<?xml version="1.0" encoding="utf-8"?>
<!DOCTYPE svg PUBLIC "-//W3C//DTD SVG 1.1//EN" "http://www.w3.org/Graphics/SVG/1.1/DTD/svg11.dtd">
<svg version="1.1" baseProfile="full"
 xmlns="http://www.w3.org/2000/svg"
 xmlns:xlink="http://www.w3.org/1999/xlink"
 xmlns:ev="http://www.w3.org/2001/xml-events" 
  height="68px" 
  width="70px" 
>
<path fill="rgb( 240, 108, 95 )"
 d="M67.3579999999999,68 C66.444,68 65.703,67.2479999999996 65.703,66.3199999999997 C65.703,61.6890000000003 61.992,57.9200000000001 57.43,57.9200000000001 C52.8680000000001,57.9200000000001 49.1559999999999,61.6890000000003 49.1559999999999,66.3199999999997 C49.1559999999999,67.2479999999996 48.415,68 47.501,68 C46.588,68 45.847,67.2479999999996 45.847,66.3199999999997 C45.847,59.8360000000002 51.043,54.5609999999997 57.43,54.5609999999997 C63.816,54.5609999999997 69.0119999999999,59.8360000000002 69.0119999999999,66.3199999999997 C69.0119999999999,67.2479999999996 68.271,68 67.3579999999999,68 ZM57.43,52.8810000000003 C53.78,52.8810000000003 50.811,49.8670000000002 50.811,46.1610000000001 C50.811,42.4560000000001 53.78,39.4409999999998 57.43,39.4409999999998 C61.079,39.4409999999998 64.048,42.4560000000001 64.048,46.1610000000001 C64.048,49.8670000000002 61.079,52.8810000000003 57.43,52.8810000000003 ZM57.43,42.8010000000004 C55.605,42.8010000000004 54.12,44.3090000000002 54.12,46.1610000000001 C54.12,48.0140000000001 55.605,49.5209999999997 57.43,49.5209999999997 C59.254,49.5209999999997 60.739,48.0140000000001 60.739,46.1610000000001 C60.739,44.3090000000002 59.254,42.8010000000004 57.43,42.8010000000004 ZM44.928,28.5590000000002 C44.014,28.5590000000002 43.274,27.8069999999998 43.274,26.8789999999999 C43.274,22.2470000000003 39.562,18.4790000000003 35,18.4790000000003 C30.438,18.4790000000003 26.726,22.2470000000003 26.726,26.8789999999999 C26.726,27.8069999999998 25.986,28.5590000000002 25.072,28.5590000000002 C24.158,28.5590000000002 23.417,27.8069999999998 23.417,26.8789999999999 C23.417,20.3950000000004 28.6130000000001,15.1189999999997 35,15.1189999999997 C41.3869999999999,15.1189999999997 46.583,20.3950000000004 46.583,26.8789999999999 C46.583,27.8069999999998 45.842,28.5590000000002 44.928,28.5590000000002 ZM35,13.4399999999996 C31.35,13.4399999999996 28.381,10.4250000000002 28.381,6.72000000000025 C28.381,3.01400000000012 31.35,0 35,0 C38.65,0 41.619,3.01400000000012 41.619,6.72000000000025 C41.619,10.4250000000002 38.65,13.4399999999996 35,13.4399999999996 ZM35,3.35999999999967 C33.175,3.35999999999967 31.691,4.86700000000019 31.691,6.72000000000025 C31.691,8.57200000000012 33.175,10.0789999999997 35,10.0789999999997 C36.825,10.0789999999997 38.309,8.57200000000012 38.309,6.72000000000025 C38.309,4.86700000000019 36.825,3.35999999999967 35,3.35999999999967 ZM22.499,68 C21.585,68 20.8440000000001,67.2479999999996 20.8440000000001,66.3199999999997 C20.8440000000001,61.6890000000003 17.1319999999999,57.9200000000001 12.5700000000001,57.9200000000001 C8.00800000000004,57.9200000000001 4.29700000000003,61.6890000000003 4.29700000000003,66.3199999999997 C4.29700000000003,67.2479999999996 3.55600000000004,68 2.64200000000005,68 C1.72900000000004,68 0.98800000000006,67.2479999999996 0.98800000000006,66.3199999999997 C0.98800000000006,59.8360000000002 6.18399999999997,54.5609999999997 12.5700000000001,54.5609999999997 C18.957,54.5609999999997 24.153,59.8360000000002 24.153,66.3199999999997 C24.153,67.2479999999996 23.412,68 22.499,68 ZM12.5700000000001,52.8810000000003 C8.92100000000005,52.8810000000003 5.952,49.8670000000002 5.952,46.1610000000001 C5.952,42.4560000000001 8.92100000000005,39.4409999999998 12.5700000000001,39.4409999999998 C16.22,39.4409999999998 19.189,42.4560000000001 19.189,46.1610000000001 C19.189,49.8670000000002 16.22,52.8810000000003 12.5700000000001,52.8810000000003 ZM12.5700000000001,42.8010000000004 C10.746,42.8010000000004 9.26099999999997,44.3090000000002 9.26099999999997,46.1610000000001 C9.26099999999997,48.0140000000001 10.746,49.5209999999997 12.5700000000001,49.5209999999997 C14.395,49.5209999999997 15.88,48.0140000000001 15.88,46.1610000000001 C15.88,44.3090000000002 14.395,42.8010000000004 12.5700000000001,42.8010000000004 ZM24.715,45.6480000000001 C24.715,45.6480000000001 33.345,40.5900000000001 33.345,40.5900000000001 C33.345,40.5900000000001 33.345,30.4719999999998 33.345,30.4719999999998 C33.345,29.5439999999999 34.086,28.7920000000004 35,28.7920000000004 C35.914,28.7920000000004 36.655,29.5439999999999 36.655,30.4719999999998 C36.655,30.4719999999998 36.655,40.5900000000001 36.655,40.5900000000001 C36.655,40.5900000000001 45.285,45.6480000000001 45.285,45.6480000000001 C46.077,46.1120000000001 46.348,47.1400000000003 45.891,47.9430000000002 C45.5839999999999,48.482 45.028,48.7839999999997 44.456,48.7839999999997 C44.175,48.7839999999997 43.891,48.7110000000002 43.63,48.558 C43.63,48.558 35,43.4989999999998 35,43.4989999999998 C35,43.4989999999998 26.37,48.558 26.37,48.558 C25.579,49.0219999999999 24.566,48.7470000000003 24.109,47.9430000000002 C23.652,47.1400000000003 23.923,46.1120000000001 24.715,45.6480000000001 Z "/>
</svg>
