<?xml version="1.0" encoding="utf-8"?>
<!DOCTYPE svg PUBLIC "-//W3C//DTD SVG 1.1//EN" "http://www.w3.org/Graphics/SVG/1.1/DTD/svg11.dtd">
<svg version="1.1" baseProfile="full"
 xmlns="http://www.w3.org/2000/svg"
 xmlns:xlink="http://www.w3.org/1999/xlink"
 xmlns:ev="http://www.w3.org/2001/xml-events" 
  height="65px" 
  width="76px" 
>
<path fill="rgb( 240, 108, 95 )"
 d="M64.87,64.451 C64.687,64.6329999999998 64.477,64.768 64.252,64.8599999999997 C64.027,64.9499999999998 63.787,64.9949999999999 63.548,64.9949999999999 C63.07,64.9949999999999 62.592,64.8140000000003 62.227,64.451 C62.227,64.451 56.375,58.6369999999997 56.375,58.6369999999997 C55.645,57.9120000000003 55.645,56.7370000000001 56.375,56.0110000000004 C57.105,55.2870000000003 58.288,55.2870000000003 59.018,56.0110000000004 C59.018,56.0110000000004 63.512,60.4769999999999 63.512,60.4769999999999 C68.753,54.683 71.793,47.3909999999996 72.211,39.6120000000001 C72.211,39.6120000000001 65.855,39.6120000000001 65.855,39.6120000000001 C64.823,39.6120000000001 63.986,38.7809999999999 63.986,37.7550000000001 C63.986,36.7290000000003 64.823,35.8980000000001 65.855,35.8980000000001 C65.855,35.8980000000001 72.21,35.8980000000001 72.21,35.8980000000001 C71.776,27.9080000000004 68.556,20.643 63.5,15.0450000000001 C63.5,15.0450000000001 59.018,19.4989999999998 59.018,19.4989999999998 C58.653,19.8609999999999 58.175,20.0420000000004 57.696,20.0420000000004 C57.218,20.0420000000004 56.74,19.8609999999999 56.375,19.4989999999998 C55.645,18.7730000000001 55.645,17.598 56.375,16.8729999999996 C56.375,16.8729999999996 60.857,12.4189999999999 60.857,12.4189999999999 C55.223,7.39599999999973 47.91,4.19599999999991 39.869,3.76500000000033 C39.869,3.76500000000033 39.869,10.0799999999999 39.869,10.0799999999999 C39.869,11.1049999999996 39.032,11.9359999999997 38,11.9359999999997 C36.968,11.9359999999997 36.131,11.1049999999996 36.131,10.0799999999999 C36.131,10.0799999999999 36.131,3.76500000000033 36.131,3.76500000000033 C28.09,4.19599999999991 20.777,7.39599999999973 15.143,12.4189999999999 C15.143,12.4189999999999 19.625,16.8729999999996 19.625,16.8729999999996 C20.355,17.5969999999998 20.355,18.7730000000001 19.625,19.4989999999998 C19.26,19.8609999999999 18.782,20.0420000000004 18.303,20.0420000000004 C17.825,20.0420000000004 17.347,19.8609999999999 16.982,19.4989999999998 C16.982,19.4989999999998 12.5,15.0450000000001 12.5,15.0450000000001 C7.44400000000002,20.643 4.22399999999999,27.9080000000004 3.78899999999999,35.8980000000001 C3.78899999999999,35.8980000000001 10.145,35.8980000000001 10.145,35.8980000000001 C11.177,35.8980000000001 12.013,36.7290000000003 12.013,37.7550000000001 C12.013,38.7809999999999 11.177,39.6120000000001 10.145,39.6120000000001 C10.145,39.6120000000001 3.78899999999999,39.6120000000001 3.78899999999999,39.6120000000001 C4.20699999999999,47.3909999999996 7.24700000000001,54.6819999999998 12.488,60.4759999999997 C12.488,60.4759999999997 16.982,56.0110000000004 16.982,56.0110000000004 C17.711,55.2870000000003 18.895,55.2870000000003 19.625,56.0110000000004 C20.355,56.7370000000001 20.355,57.9120000000003 19.625,58.6369999999997 C19.625,58.6369999999997 13.866,64.3599999999997 13.866,64.3599999999997 C13.837,64.3919999999998 13.809,64.4250000000002 13.778,64.4560000000001 C13.413,64.8190000000004 12.935,65 12.456,65 C11.978,65 11.5,64.8190000000004 11.135,64.4570000000003 C11.134,64.4560000000001 11.133,64.4539999999997 11.132,64.4539999999997 C11.131,64.4530000000004 11.131,64.4520000000002 11.13,64.4520000000002 C11.129,64.451 11.128,64.4499999999998 11.127,64.4489999999996 C3.952,57.317 0,47.8379999999997 0,37.7550000000001 C0,27.4399999999996 4.18599999999998,18.0810000000001 10.957,11.2600000000002 C11.01,11.1899999999996 11.066,11.1210000000001 11.13,11.058 C11.194,10.9949999999999 11.262,10.9380000000001 11.333,10.8860000000004 C18.198,4.15899999999965 27.619,0 38,0 C48.381,0 57.802,4.15899999999965 64.667,10.8860000000004 C64.737,10.9380000000001 64.806,10.9949999999999 64.87,11.058 C64.934,11.1210000000001 64.99,11.1899999999996 65.043,11.2600000000002 C71.814,18.0810000000001 76,27.4399999999996 76,37.7550000000001 C76,47.8389999999999 72.047,57.3209999999999 64.87,64.451 ZM38,30.8429999999998 C38.252,30.8429999999998 38.504,30.8620000000001 38.756,30.8879999999999 C38.756,30.8879999999999 44.156,17.4949999999999 44.156,17.4949999999999 C44.54,16.5429999999997 45.627,16.0799999999999 46.586,16.4620000000004 C47.544,16.8429999999998 48.009,17.924 47.626,18.875 C47.626,18.875 42.267,32.1660000000002 42.267,32.1660000000002 C42.406,32.2550000000001 42.546,32.3450000000003 42.682,32.4440000000004 C42.935,32.6270000000004 43.165,32.8559999999998 43.347,33.1059999999998 C45.13,35.5420000000004 45.45,38.4530000000004 44.201,40.8879999999999 C43.007,43.2179999999998 40.631,44.6660000000002 38,44.6660000000002 C36.387,44.6660000000002 34.768,44.1130000000003 33.319,43.0659999999998 C33.066,42.884 32.837,42.6559999999999 32.654,42.4059999999999 C30.87,39.9669999999996 30.55,37.0569999999998 31.799,34.6210000000001 C32.994,32.2910000000002 35.37,30.8429999999998 38,30.8429999999998 ZM35.611,40.1289999999999 C36.398,40.6750000000002 37.202,40.9520000000002 38,40.9520000000002 C39.217,40.9520000000002 40.317,40.2820000000002 40.871,39.2030000000004 C41.463,38.0479999999998 41.286,36.6599999999999 40.389,35.3810000000003 C40.038,35.1360000000004 39.683,34.9489999999996 39.326,34.8140000000003 C39.285,34.8000000000002 39.244,34.7870000000003 39.203,34.7709999999997 C39.19,34.7659999999996 39.179,34.759 39.166,34.7539999999999 C38.778,34.6239999999998 38.388,34.5569999999998 38,34.5569999999998 C36.783,34.5569999999998 35.683,35.2269999999999 35.13,36.3069999999998 C34.537,37.4610000000002 34.714,38.8490000000002 35.611,40.1289999999999 Z "/>
</svg>
