<?xml version="1.0" encoding="utf-8"?>
<!DOCTYPE svg PUBLIC "-//W3C//DTD SVG 1.1//EN" "http://www.w3.org/Graphics/SVG/1.1/DTD/svg11.dtd">
<svg version="1.1" baseProfile="full"
 xmlns="http://www.w3.org/2000/svg"
 xmlns:xlink="http://www.w3.org/1999/xlink"
 xmlns:ev="http://www.w3.org/2001/xml-events" 
  height="70px" 
  width="104px" 
>
<path fill="rgb( 240, 108, 95 )"
 d="M101.548,26.5379999999996 C100.316,28.0339999999997 98.502,28.8919999999998 96.572,28.8919999999998 C96.572,28.8919999999998 62.772,28.8919999999998 62.772,28.8919999999998 C61.583,28.8919999999998 60.546,28.2449999999999 59.988,27.2870000000003 C59.988,27.2870000000003 33.812,27.2870000000003 33.812,27.2870000000003 C33.812,27.2870000000003 33.812,36.3879999999999 33.812,36.3879999999999 C33.812,36.3879999999999 34.45,37.2370000000001 34.45,37.2370000000001 C35.554,38.7049999999999 35.729,40.6369999999997 34.906,42.2790000000005 C34.083,43.9200000000001 32.428,44.9399999999996 30.587,44.9399999999996 C30.587,44.9399999999996 11.273,44.9399999999996 11.273,44.9399999999996 C9.43200000000002,44.9399999999996 7.77699999999999,43.9200000000001 6.95400000000001,42.2790000000005 C6.13099999999997,40.6369999999997 6.30500000000001,38.7049999999999 7.41000000000003,37.2370000000001 C7.41000000000003,37.2370000000001 8.05399999999997,36.3810000000003 8.05399999999997,36.3810000000003 C8.05399999999997,36.3810000000003 8.05399999999997,8.56900000000041 8.05399999999997,8.56900000000041 C8.05399999999997,8.56900000000041 7.41000000000003,7.71299999999974 7.41000000000003,7.71299999999974 C6.30500000000001,6.24499999999989 6.13099999999997,4.3130000000001 6.95400000000001,2.67199999999957 C7.77699999999999,1.02999999999975 9.43200000000002,0.01000000000022 11.273,0.01000000000022 C11.273,0.01000000000022 30.587,0.01000000000022 30.587,0.01000000000022 C32.428,0.01000000000022 34.083,1.02999999999975 34.906,2.67199999999957 C35.729,4.3130000000001 35.554,6.24499999999989 34.45,7.71299999999974 C34.45,7.71299999999974 33.812,8.56099999999969 33.812,8.56099999999969 C33.812,8.56099999999969 33.812,17.6599999999999 33.812,17.6599999999999 C33.812,17.6599999999999 59.988,17.6599999999999 59.988,17.6599999999999 C60.546,16.7020000000002 61.583,16.0550000000003 62.772,16.0550000000003 C62.772,16.0550000000003 96.36,16.0550000000003 96.36,16.0550000000003 C99.547,16.0550000000003 102.29,18.2139999999999 102.882,21.1909999999998 C103.262,23.0969999999998 102.776,25.0460000000003 101.548,26.5379999999996 ZM28.983,35.3109999999997 C28.983,35.3109999999997 30.593,35.3109999999997 30.593,35.3109999999997 C30.593,35.3109999999997 30.593,9.63900000000012 30.593,9.63900000000012 C30.593,9.63900000000012 28.983,9.63900000000012 28.983,9.63900000000012 C28.094,9.63900000000012 27.374,8.92000000000007 27.374,8.03399999999965 C27.374,7.14800000000014 28.094,6.42900000000009 28.983,6.42900000000009 C28.983,6.42900000000009 31.392,6.42900000000009 31.392,6.42900000000009 C31.392,6.42900000000009 31.875,5.78700000000026 31.875,5.78700000000026 C32.248,5.28999999999996 32.305,4.66200000000026 32.027,4.10699999999997 C31.748,3.55100000000039 31.21,3.22000000000025 30.587,3.22000000000025 C30.587,3.22000000000025 11.273,3.22000000000025 11.273,3.22000000000025 C10.65,3.22000000000025 10.112,3.55100000000039 9.83300000000003,4.10699999999997 C9.55500000000001,4.66200000000026 9.61200000000002,5.28999999999996 9.98500000000001,5.78700000000026 C9.98500000000001,5.78700000000026 10.468,6.42900000000009 10.468,6.42900000000009 C10.468,6.42900000000009 22.54,6.42900000000009 22.54,6.42900000000009 C23.428,6.42900000000009 24.149,7.14800000000014 24.149,8.03399999999965 C24.149,8.92000000000007 23.428,9.63900000000012 22.54,9.63900000000012 C22.54,9.63900000000012 11.273,9.63900000000012 11.273,9.63900000000012 C11.273,9.63900000000012 11.273,35.3109999999997 11.273,35.3109999999997 C11.273,35.3109999999997 22.54,35.3109999999997 22.54,35.3109999999997 C23.428,35.3109999999997 24.149,36.0299999999997 24.149,36.9160000000002 C24.149,37.8019999999997 23.428,38.5209999999997 22.54,38.5209999999997 C22.54,38.5209999999997 10.468,38.5209999999997 10.468,38.5209999999997 C10.468,38.5209999999997 9.98500000000001,39.1620000000003 9.98500000000001,39.1620000000003 C9.61200000000002,39.6589999999997 9.55500000000001,40.2870000000003 9.834,40.8429999999998 C10.112,41.3990000000003 10.65,41.7299999999996 11.273,41.7299999999996 C11.273,41.7299999999996 30.587,41.7299999999996 30.587,41.7299999999996 C31.21,41.7299999999996 31.749,41.3990000000003 32.027,40.8429999999998 C32.305,40.2870000000003 32.249,39.6589999999997 31.875,39.1620000000003 C31.875,39.1620000000003 31.392,38.5209999999997 31.392,38.5209999999997 C31.392,38.5209999999997 28.983,38.5209999999997 28.983,38.5209999999997 C28.094,38.5209999999997 27.374,37.8019999999997 27.374,36.9160000000002 C27.374,36.0299999999997 28.094,35.3109999999997 28.983,35.3109999999997 ZM59.553,20.8689999999997 C59.553,20.8689999999997 33.812,20.8689999999997 33.812,20.8689999999997 C33.812,20.8689999999997 33.812,24.0780000000004 33.812,24.0780000000004 C33.812,24.0780000000004 59.553,24.0780000000004 59.553,24.0780000000004 C59.553,24.0780000000004 59.553,20.8689999999997 59.553,20.8689999999997 ZM99.725,21.8149999999996 C99.4349999999999,20.3609999999999 97.989,19.2640000000001 96.36,19.2640000000001 C96.36,19.2640000000001 62.772,19.2640000000001 62.772,19.2640000000001 C62.772,19.2640000000001 62.772,25.683 62.772,25.683 C62.772,25.683 96.572,25.683 96.572,25.683 C97.535,25.683 98.441,25.2520000000004 99.0599999999999,24.5010000000002 C99.683,23.7449999999999 99.919,22.79 99.725,21.8149999999996 ZM41.848,65.1760000000004 C41.848,65.1760000000004 41.848,68.1840000000002 41.848,68.1840000000002 C41.848,69.1800000000003 41.036,69.9899999999998 40.037,69.9899999999998 C40.037,69.9899999999998 1.81099999999998,69.9899999999998 1.81099999999998,69.9899999999998 C0.81299999999999,69.9899999999998 0,69.1800000000003 0,68.1840000000002 C0,68.1840000000002 0,65.1760000000004 0,65.1760000000004 C0,62.5209999999997 2.166,60.3609999999999 4.82900000000001,60.3609999999999 C4.82900000000001,60.3609999999999 37.019,60.3609999999999 37.019,60.3609999999999 C39.682,60.3609999999999 41.848,62.5209999999997 41.848,65.1760000000004 ZM3.21899999999999,65.1760000000004 C3.21899999999999,65.1760000000004 3.21899999999999,66.7799999999997 3.21899999999999,66.7799999999997 C3.21899999999999,66.7799999999997 38.629,66.7799999999997 38.629,66.7799999999997 C38.629,66.7799999999997 38.629,65.1760000000004 38.629,65.1760000000004 C38.629,64.2910000000002 37.907,63.5709999999999 37.019,63.5709999999999 C37.019,63.5709999999999 4.82900000000001,63.5709999999999 4.82900000000001,63.5709999999999 C3.94099999999997,63.5709999999999 3.21899999999999,64.2910000000002 3.21899999999999,65.1760000000004 Z "/>
</svg>
