<?xml version="1.0" encoding="utf-8"?>
<!DOCTYPE svg PUBLIC "-//W3C//DTD SVG 1.1//EN" "http://www.w3.org/Graphics/SVG/1.1/DTD/svg11.dtd">
<svg version="1.1" baseProfile="full"
 xmlns="http://www.w3.org/2000/svg"
 xmlns:xlink="http://www.w3.org/1999/xlink"
 xmlns:ev="http://www.w3.org/2001/xml-events" 
  height="33px" 
  width="20px" 
>
<path fill="rgb( 160, 188, 211 )"
 d="M11.123,1.11500000000001 C11.128,1.09000000000003 11.153,1.04499999999996 11.128,1.04200000000003 C10.585,0.96199999999999 9.55499999999995,0.90700000000004 8.875,1.04200000000003 C8.84900000000005,1.04600000000005 8.87900000000002,1.09000000000003 8.87900000000002,1.11500000000001 C4.44500000000005,1.66700000000003 0.99900000000002,5.45899999999995 0.99900000000002,10.043 C0.99900000000002,10.043 0.99900000000002,23.014 0.99900000000002,23.014 C0.99900000000002,27.977 5.03800000000001,32.015 10.002,32.015 C14.967,32.015 19.002,27.977 19.002,23.014 C19.002,23.014 19.002,10.043 19.002,10.043 C19.002,5.45799999999997 15.561,1.66700000000003 11.123,1.11500000000001 ZM17.001,22.957 C17.001,26.826 13.8680000000001,29.962 10.002,29.962 C6.13199999999995,29.962 2.99800000000005,26.826 2.99800000000005,22.957 C2.99800000000005,22.957 2.99800000000005,9.98699999999997 2.99800000000005,9.98699999999997 C2.99800000000005,6.11900000000003 6.13199999999995,2.98400000000004 10.002,2.98400000000004 C13.8680000000001,2.98400000000004 17.001,6.11900000000003 17.001,9.98699999999997 C17.001,9.98699999999997 17.001,22.957 17.001,22.957 ZM10.9930000000001,7.93200000000002 C10.9930000000001,7.93200000000002 10.9930000000001,14.046 10.9930000000001,14.046 C10.9930000000001,14.593 10.549,15.038 10.002,15.038 C9.45299999999997,15.038 9.00800000000004,14.595 9.00800000000004,14.046 C9.00800000000004,14.046 9.00800000000004,7.93200000000002 9.00800000000004,7.93200000000002 C9.00800000000004,7.38599999999997 9.452,6.94000000000005 10.002,6.94000000000005 C10.549,6.94000000000005 10.9930000000001,7.38400000000001 10.9930000000001,7.93200000000002 Z "/>
</svg>
