<?xml version="1.0" encoding="utf-8"?>
<!DOCTYPE svg PUBLIC "-//W3C//DTD SVG 1.1//EN" "http://www.w3.org/Graphics/SVG/1.1/DTD/svg11.dtd">
<svg version="1.1" baseProfile="full"
 xmlns="http://www.w3.org/2000/svg"
 xmlns:xlink="http://www.w3.org/1999/xlink"
 xmlns:ev="http://www.w3.org/2001/xml-events" 
  height="23px" 
  width="23px" 
>
<path fill="rgb( 255, 255, 255 )"
 d="M22.1079999999999,0.89199999999983 C22.903,1.6869999999999 22.902,2.97599999999966 22.1079999999999,3.77099999999973 C22.1079999999999,3.77099999999973 21.148,4.73099999999977 21.148,4.73099999999977 C21.148,4.73099999999977 18.268,1.85199999999986 18.268,1.85199999999986 C18.268,1.85199999999986 19.228,0.89199999999983 19.228,0.89199999999983 C20.023,0.09799999999996 21.313,0.09699999999975 22.1079999999999,0.89199999999983 ZM7.71299999999997,12.4080000000004 C7.71299999999997,12.4080000000004 6.755,16.2460000000001 6.755,16.2460000000001 C6.755,16.2460000000001 10.593,15.2870000000003 10.593,15.2870000000003 C10.593,15.2870000000003 20.189,5.6899999999996 20.189,5.6899999999996 C20.189,5.6899999999996 17.309,2.81099999999969 17.309,2.81099999999969 C17.309,2.81099999999969 7.71299999999997,12.4080000000004 7.71299999999997,12.4080000000004 ZM16.994,10.692 C16.994,10.692 16.994,18.9579999999996 16.994,18.9579999999996 C16.994,18.9579999999996 3.98500000000001,18.9579999999996 3.98500000000001,18.9579999999996 C3.98500000000001,18.9579999999996 3.98500000000001,5.94999999999982 3.98500000000001,5.94999999999982 C3.98500000000001,5.94999999999982 12.477,5.94999999999982 12.477,5.94999999999982 C12.477,5.94999999999982 15.191,3.01000000000022 15.191,3.01000000000022 C15.191,3.01000000000022 0.99000000000001,3.01000000000022 0.99000000000001,3.01000000000022 C0.99000000000001,3.01000000000022 0.99000000000001,22.0100000000002 0.99000000000001,22.0100000000002 C0.99000000000001,22.0100000000002 19.99,22.0100000000002 19.99,22.0100000000002 C19.99,22.0100000000002 19.99,7.80799999999999 19.99,7.80799999999999 C19.99,7.80799999999999 16.994,10.692 16.994,10.692 Z "/>
</svg>
