<?xml version="1.0" encoding="utf-8"?>
<!DOCTYPE svg PUBLIC "-//W3C//DTD SVG 1.1//EN" "http://www.w3.org/Graphics/SVG/1.1/DTD/svg11.dtd">
<svg version="1.1" baseProfile="full"
 xmlns="http://www.w3.org/2000/svg"
 xmlns:xlink="http://www.w3.org/1999/xlink"
 xmlns:ev="http://www.w3.org/2001/xml-events" 
  height="86px" 
  width="86px" 
>
<path fill="rgb( 240, 108, 95 )"
 d="M84.653,80.6220000000003 C84.653,80.6220000000003 7.50999999999999,80.6220000000003 7.50999999999999,80.6220000000003 C7.50999999999999,80.6220000000003 16.907,72.0789999999997 16.907,72.0789999999997 C17.475,72.3850000000002 18.125,72.5600000000004 18.8150000000001,72.5600000000004 C20.1849999999999,72.5600000000004 21.397,71.8720000000003 22.125,70.8249999999998 C22.125,70.8249999999998 29.576,72.8559999999998 29.576,72.8559999999998 C29.728,74.9409999999998 31.472,76.5910000000003 33.595,76.5910000000003 C35.817,76.5910000000003 37.626,74.7820000000002 37.626,72.5600000000004 C37.626,71.8590000000004 37.4450000000001,71.1989999999996 37.129,70.6239999999998 C37.129,70.6239999999998 46.18,60.509 46.18,60.509 C46.18,60.509 47.92,63.3199999999997 47.92,63.3199999999997 C47.365,64.0110000000004 47.0309999999999,64.8879999999999 47.0309999999999,65.8419999999996 C47.0309999999999,68.0640000000003 48.8390000000001,69.8720000000003 51.062,69.8720000000003 C52.463,69.8720000000003 53.698,69.1540000000005 54.421,68.0659999999998 C54.421,68.0659999999998 73.922,72.942 73.922,72.942 C74.115,74.9859999999999 75.841,76.5910000000003 77.934,76.5910000000003 C80.157,76.5910000000003 81.965,74.7820000000002 81.965,72.5600000000004 C81.965,70.3370000000004 80.157,68.5290000000005 77.934,68.5290000000005 C76.534,68.5290000000005 75.298,69.2470000000003 74.575,70.335 C74.575,70.335 55.074,65.46 55.074,65.46 C54.881,63.4160000000002 53.1559999999999,61.8109999999997 51.062,61.8109999999997 C50.7670000000001,61.8109999999997 50.481,61.8429999999998 50.204,61.9040000000005 C50.204,61.9040000000005 48.048,58.4210000000003 48.048,58.4210000000003 C48.048,58.4210000000003 54.904,50.759 54.904,50.759 C55.377,50.9530000000004 55.894,51.0619999999999 56.436,51.0619999999999 C58.659,51.0619999999999 60.467,49.2539999999999 60.467,47.0299999999997 C60.467,45.817 59.927,44.7269999999999 59.075,43.9880000000003 C59.075,43.9880000000003 71.078,13.4359999999997 71.078,13.4359999999997 C71.124,13.4380000000001 71.17,13.4399999999996 71.216,13.4399999999996 C73.439,13.4399999999996 75.247,11.6319999999996 75.247,9.40899999999965 C75.247,7.18599999999969 73.439,5.3779999999997 71.216,5.3779999999997 C68.994,5.3779999999997 67.1849999999999,7.18599999999969 67.1849999999999,9.40899999999965 C67.1849999999999,10.6229999999996 67.725,11.7129999999997 68.577,12.4520000000002 C68.577,12.4520000000002 56.575,43.0039999999999 56.575,43.0039999999999 C56.529,43.0020000000004 56.4829999999999,43 56.436,43 C54.2140000000001,43 52.405,44.808 52.405,47.0299999999997 C52.405,47.732 52.586,48.3909999999996 52.902,48.9660000000003 C52.902,48.9660000000003 35.127,68.8320000000003 35.127,68.8320000000003 C34.654,68.6369999999997 34.1369999999999,68.5290000000005 33.595,68.5290000000005 C32.224,68.5290000000005 31.013,69.2169999999996 30.284,70.2640000000001 C30.284,70.2640000000001 22.833,68.2330000000002 22.833,68.2330000000002 C22.681,66.1480000000001 20.937,64.4979999999996 18.8150000000001,64.4979999999996 C16.592,64.4979999999996 14.784,66.3069999999998 14.784,68.5290000000005 C14.784,69.0829999999996 14.896,69.6109999999999 15.099,70.0910000000003 C15.099,70.0910000000003 5.37800000000004,78.9279999999999 5.37800000000004,78.9279999999999 C5.37800000000004,78.9279999999999 5.37800000000004,43.6130000000003 5.37800000000004,43.6130000000003 C5.37800000000004,43.6130000000003 17.474,48.2650000000003 17.474,48.2650000000003 C17.473,48.3019999999997 17.471,48.3379999999997 17.471,48.375 C17.471,50.5969999999998 19.279,52.4049999999997 21.502,52.4049999999997 C23.725,52.4049999999997 25.533,50.5969999999998 25.533,48.375 C25.533,47.8370000000004 25.426,47.3239999999996 25.234,46.8549999999996 C25.234,46.8549999999996 31.648,41.1530000000002 31.648,41.1530000000002 C32.225,41.473 32.889,41.6570000000002 33.595,41.6570000000002 C33.889,41.6570000000002 34.176,41.6239999999998 34.452,41.5640000000003 C34.452,41.5640000000003 42.433,54.4560000000001 42.433,54.4560000000001 C42.687,54.866 43.127,55.0919999999996 43.577,55.0919999999996 C43.818,55.0919999999996 44.062,55.0280000000002 44.283,54.8909999999996 C44.913,54.5010000000002 45.1079999999999,53.6719999999996 44.718,53.0420000000004 C44.718,53.0420000000004 36.736,40.1469999999999 36.736,40.1469999999999 C37.292,39.4560000000001 37.626,38.5789999999997 37.626,37.625 C37.626,35.4030000000002 35.817,33.5950000000003 33.595,33.5950000000003 C31.372,33.5950000000003 29.564,35.4030000000002 29.564,37.625 C29.564,38.1629999999996 29.67,38.6760000000004 29.862,39.1459999999997 C29.862,39.1459999999997 23.448,44.8469999999998 23.448,44.8469999999998 C22.871,44.527 22.207,44.3440000000001 21.502,44.3440000000001 C20.277,44.3440000000001 19.18,44.893 18.4400000000001,45.7569999999996 C18.4400000000001,45.7569999999996 5.37800000000004,40.7340000000004 5.37800000000004,40.7340000000004 C5.37800000000004,40.7340000000004 5.37800000000004,1.34799999999996 5.37800000000004,1.34799999999996 C5.37800000000004,0.60499999999956 4.77700000000004,0.0029999999997 4.03499999999997,0.0029999999997 C3.29300000000001,0.0029999999997 2.69100000000003,0.60499999999956 2.69100000000003,1.34799999999996 C2.69100000000003,1.34799999999996 2.69100000000003,8.0649999999996 2.69100000000003,8.0649999999996 C2.69100000000003,8.0649999999996 1.34699999999998,8.0649999999996 1.34699999999998,8.0649999999996 C0.60500000000002,8.0649999999996 0.00400000000002,8.66700000000037 0.00400000000002,9.40899999999965 C0.00400000000002,10.1509999999998 0.60500000000002,10.7529999999997 1.34699999999998,10.7529999999997 C1.34699999999998,10.7529999999997 2.69100000000003,10.7529999999997 2.69100000000003,10.7529999999997 C2.69100000000003,10.7529999999997 2.69100000000003,16.1279999999997 2.69100000000003,16.1279999999997 C2.69100000000003,16.1279999999997 1.34699999999998,16.1279999999997 1.34699999999998,16.1279999999997 C0.60500000000002,16.1279999999997 0.00400000000002,16.7290000000003 0.00400000000002,17.4709999999995 C0.00400000000002,18.2129999999997 0.60500000000002,18.8149999999996 1.34699999999998,18.8149999999996 C1.34699999999998,18.8149999999996 2.69100000000003,18.8149999999996 2.69100000000003,18.8149999999996 C2.69100000000003,18.8149999999996 2.69100000000003,24.1899999999996 2.69100000000003,24.1899999999996 C2.69100000000003,24.1899999999996 1.34699999999998,24.1899999999996 1.34699999999998,24.1899999999996 C0.60500000000002,24.1899999999996 0.00400000000002,24.7910000000002 0.00400000000002,25.5330000000004 C0.00400000000002,26.2749999999996 0.60500000000002,26.8760000000002 1.34699999999998,26.8760000000002 C1.34699999999998,26.8760000000002 2.69100000000003,26.8760000000002 2.69100000000003,26.8760000000002 C2.69100000000003,26.8760000000002 2.69100000000003,32.2510000000002 2.69100000000003,32.2510000000002 C2.69100000000003,32.2510000000002 1.34699999999998,32.2510000000002 1.34699999999998,32.2510000000002 C0.60500000000002,32.2510000000002 0.00400000000002,32.8530000000001 0.00400000000002,33.5950000000003 C0.00400000000002,34.3370000000004 0.60500000000002,34.9380000000001 1.34699999999998,34.9380000000001 C1.34699999999998,34.9380000000001 2.69100000000003,34.9380000000001 2.69100000000003,34.9380000000001 C2.69100000000003,34.9380000000001 2.69100000000003,40.3130000000001 2.69100000000003,40.3130000000001 C2.69100000000003,40.3130000000001 1.34699999999998,40.3130000000001 1.34699999999998,40.3130000000001 C0.60500000000002,40.3130000000001 0.00400000000002,40.915 0.00400000000002,41.6570000000002 C0.00400000000002,42.3980000000001 0.60500000000002,43 1.34699999999998,43 C1.34699999999998,43 2.69100000000003,43 2.69100000000003,43 C2.69100000000003,43 2.69100000000003,48.375 2.69100000000003,48.375 C2.69100000000003,48.375 1.34699999999998,48.375 1.34699999999998,48.375 C0.60500000000002,48.375 0.00400000000002,48.9759999999997 0.00400000000002,49.7179999999998 C0.00400000000002,50.46 0.60500000000002,51.0619999999999 1.34699999999998,51.0619999999999 C1.34699999999998,51.0619999999999 2.69100000000003,51.0619999999999 2.69100000000003,51.0619999999999 C2.69100000000003,51.0619999999999 2.69100000000003,56.4369999999999 2.69100000000003,56.4369999999999 C2.69100000000003,56.4369999999999 1.34699999999998,56.4369999999999 1.34699999999998,56.4369999999999 C0.60500000000002,56.4369999999999 0.00400000000002,57.0379999999996 0.00400000000002,57.7799999999997 C0.00400000000002,58.5219999999999 0.60500000000002,59.1239999999998 1.34699999999998,59.1239999999998 C1.34699999999998,59.1239999999998 2.69100000000003,59.1239999999998 2.69100000000003,59.1239999999998 C2.69100000000003,59.1239999999998 2.69100000000003,64.4979999999996 2.69100000000003,64.4979999999996 C2.69100000000003,64.4979999999996 1.34699999999998,64.4979999999996 1.34699999999998,64.4979999999996 C0.60500000000002,64.4979999999996 0.00400000000002,65.1000000000004 0.00400000000002,65.8419999999996 C0.00400000000002,66.5839999999998 0.60500000000002,67.1850000000004 1.34699999999998,67.1850000000004 C1.34699999999998,67.1850000000004 2.69100000000003,67.1850000000004 2.69100000000003,67.1850000000004 C2.69100000000003,67.1850000000004 2.69100000000003,72.5600000000004 2.69100000000003,72.5600000000004 C2.69100000000003,72.5600000000004 1.34699999999998,72.5600000000004 1.34699999999998,72.5600000000004 C0.60500000000002,72.5600000000004 0.00400000000002,73.1620000000003 0.00400000000002,73.9040000000005 C0.00400000000002,74.6459999999997 0.60500000000002,75.2470000000003 1.34699999999998,75.2470000000003 C1.34699999999998,75.2470000000003 2.69100000000003,75.2470000000003 2.69100000000003,75.2470000000003 C2.69100000000003,75.2470000000003 2.69100000000003,80.6220000000003 2.69100000000003,80.6220000000003 C2.69100000000003,80.6220000000003 1.34699999999998,80.6220000000003 1.34699999999998,80.6220000000003 C0.60500000000002,80.6220000000003 0.00400000000002,81.2240000000002 0.00400000000002,81.9650000000001 C0.00400000000002,82.7070000000003 0.60500000000002,83.3090000000002 1.34699999999998,83.3090000000002 C1.34699999999998,83.3090000000002 2.69100000000003,83.3090000000002 2.69100000000003,83.3090000000002 C2.69100000000003,83.3090000000002 2.69100000000003,84.652 2.69100000000003,84.652 C2.69100000000003,85.3950000000004 3.29300000000001,85.9960000000001 4.03499999999997,85.9960000000001 C4.77700000000004,85.9960000000001 5.37800000000004,85.3950000000004 5.37800000000004,84.652 C5.37800000000004,84.652 5.37800000000004,83.3090000000002 5.37800000000004,83.3090000000002 C5.37800000000004,83.3090000000002 10.753,83.3090000000002 10.753,83.3090000000002 C10.753,83.3090000000002 10.753,84.652 10.753,84.652 C10.753,85.3950000000004 11.354,85.9960000000001 12.096,85.9960000000001 C12.838,85.9960000000001 13.4400000000001,85.3950000000004 13.4400000000001,84.652 C13.4400000000001,84.652 13.4400000000001,83.3090000000002 13.4400000000001,83.3090000000002 C13.4400000000001,83.3090000000002 18.8150000000001,83.3090000000002 18.8150000000001,83.3090000000002 C18.8150000000001,83.3090000000002 18.8150000000001,84.652 18.8150000000001,84.652 C18.8150000000001,85.3950000000004 19.4160000000001,85.9960000000001 20.158,85.9960000000001 C20.9,85.9960000000001 21.502,85.3950000000004 21.502,84.652 C21.502,84.652 21.502,83.3090000000002 21.502,83.3090000000002 C21.502,83.3090000000002 26.876,83.3090000000002 26.876,83.3090000000002 C26.876,83.3090000000002 26.876,84.652 26.876,84.652 C26.876,85.3950000000004 27.478,85.9960000000001 28.22,85.9960000000001 C28.962,85.9960000000001 29.564,85.3950000000004 29.564,84.652 C29.564,84.652 29.564,83.3090000000002 29.564,83.3090000000002 C29.564,83.3090000000002 34.938,83.3090000000002 34.938,83.3090000000002 C34.938,83.3090000000002 34.938,84.652 34.938,84.652 C34.938,85.3950000000004 35.54,85.9960000000001 36.282,85.9960000000001 C37.024,85.9960000000001 37.626,85.3950000000004 37.626,84.652 C37.626,84.652 37.626,83.3090000000002 37.626,83.3090000000002 C37.626,83.3090000000002 43,83.3090000000002 43,83.3090000000002 C43,83.3090000000002 43,84.652 43,84.652 C43,85.3950000000004 43.602,85.9960000000001 44.3440000000001,85.9960000000001 C45.086,85.9960000000001 45.687,85.3950000000004 45.687,84.652 C45.687,84.652 45.687,83.3090000000002 45.687,83.3090000000002 C45.687,83.3090000000002 51.062,83.3090000000002 51.062,83.3090000000002 C51.062,83.3090000000002 51.062,84.652 51.062,84.652 C51.062,85.3950000000004 51.663,85.9960000000001 52.405,85.9960000000001 C53.147,85.9960000000001 53.749,85.3950000000004 53.749,84.652 C53.749,84.652 53.749,83.3090000000002 53.749,83.3090000000002 C53.749,83.3090000000002 59.124,83.3090000000002 59.124,83.3090000000002 C59.124,83.3090000000002 59.124,84.652 59.124,84.652 C59.124,85.3950000000004 59.725,85.9960000000001 60.467,85.9960000000001 C61.2089999999999,85.9960000000001 61.811,85.3950000000004 61.811,84.652 C61.811,84.652 61.811,83.3090000000002 61.811,83.3090000000002 C61.811,83.3090000000002 67.1849999999999,83.3090000000002 67.1849999999999,83.3090000000002 C67.1849999999999,83.3090000000002 67.1849999999999,84.652 67.1849999999999,84.652 C67.1849999999999,85.3950000000004 67.787,85.9960000000001 68.529,85.9960000000001 C69.271,85.9960000000001 69.873,85.3950000000004 69.873,84.652 C69.873,84.652 69.873,83.3090000000002 69.873,83.3090000000002 C69.873,83.3090000000002 75.247,83.3090000000002 75.247,83.3090000000002 C75.247,83.3090000000002 75.247,84.652 75.247,84.652 C75.247,85.3950000000004 75.849,85.9960000000001 76.591,85.9960000000001 C77.333,85.9960000000001 77.934,85.3950000000004 77.934,84.652 C77.934,84.652 77.934,83.3090000000002 77.934,83.3090000000002 C77.934,83.3090000000002 84.653,83.3090000000002 84.653,83.3090000000002 C85.395,83.3090000000002 85.996,82.7070000000003 85.996,81.9650000000001 C85.996,81.2240000000002 85.395,80.6220000000003 84.653,80.6220000000003 ZM77.934,71.2169999999996 C78.675,71.2169999999996 79.278,71.8190000000004 79.278,72.5600000000004 C79.278,73.3010000000004 78.675,73.9040000000005 77.934,73.9040000000005 C77.194,73.9040000000005 76.591,73.3010000000004 76.591,72.5600000000004 C76.591,71.8190000000004 77.194,71.2169999999996 77.934,71.2169999999996 ZM52.405,65.8419999999996 C52.405,66.5829999999996 51.803,67.1850000000004 51.062,67.1850000000004 C50.321,67.1850000000004 49.718,66.5829999999996 49.718,65.8419999999996 C49.718,65.1009999999997 50.321,64.4979999999996 51.062,64.4979999999996 C51.803,64.4979999999996 52.405,65.1009999999997 52.405,65.8419999999996 ZM71.216,8.0649999999996 C71.957,8.0649999999996 72.5599999999999,8.66799999999967 72.5599999999999,9.40899999999965 C72.5599999999999,10.1499999999996 71.957,10.7529999999997 71.216,10.7529999999997 C70.475,10.7529999999997 69.873,10.1499999999996 69.873,9.40899999999965 C69.873,8.66799999999967 70.475,8.0649999999996 71.216,8.0649999999996 ZM33.595,36.2820000000002 C34.335,36.2820000000002 34.938,36.884 34.938,37.625 C34.938,38.366 34.335,38.9690000000001 33.595,38.9690000000001 C32.854,38.9690000000001 32.251,38.366 32.251,37.625 C32.251,36.884 32.854,36.2820000000002 33.595,36.2820000000002 ZM21.502,47.0299999999997 C22.2430000000001,47.0299999999997 22.846,47.634 22.846,48.375 C22.846,49.1149999999998 22.2430000000001,49.7179999999998 21.502,49.7179999999998 C20.761,49.7179999999998 20.158,49.1149999999998 20.158,48.375 C20.158,47.634 20.761,47.0299999999997 21.502,47.0299999999997 ZM56.436,45.6869999999999 C57.177,45.6869999999999 57.78,46.29 57.78,47.0299999999997 C57.78,47.7709999999997 57.177,48.375 56.436,48.375 C55.696,48.375 55.093,47.7709999999997 55.093,47.0299999999997 C55.093,46.29 55.696,45.6869999999999 56.436,45.6869999999999 ZM33.595,71.2169999999996 C34.335,71.2169999999996 34.938,71.8190000000004 34.938,72.5600000000004 C34.938,73.3010000000004 34.335,73.9040000000005 33.595,73.9040000000005 C32.854,73.9040000000005 32.251,73.3010000000004 32.251,72.5600000000004 C32.251,71.8190000000004 32.854,71.2169999999996 33.595,71.2169999999996 ZM18.8150000000001,67.1850000000004 C19.555,67.1850000000004 20.158,67.7879999999996 20.158,68.5290000000005 C20.158,69.2700000000004 19.555,69.8720000000003 18.8150000000001,69.8720000000003 C18.074,69.8720000000003 17.471,69.2700000000004 17.471,68.5290000000005 C17.471,67.7879999999996 18.074,67.1850000000004 18.8150000000001,67.1850000000004 Z "/>
</svg>
