<?xml version="1.0" encoding="utf-8"?>
<!DOCTYPE svg PUBLIC "-//W3C//DTD SVG 1.1//EN" "http://www.w3.org/Graphics/SVG/1.1/DTD/svg11.dtd">
<svg version="1.1" baseProfile="full"
 xmlns="http://www.w3.org/2000/svg"
 xmlns:xlink="http://www.w3.org/1999/xlink"
 xmlns:ev="http://www.w3.org/2001/xml-events" 
  height="68px" 
  width="67px" 
>
<path fill="rgb( 240, 108, 95 )"
 d="M62.247,26.9620000000004 C59.192,30.0450000000001 55.131,31.741 50.811,31.7420000000002 C50.807,31.7420000000002 50.803,31.7420000000002 50.799,31.7420000000002 C49.49,31.741 47.576,31.3159999999998 46.463,31.0389999999998 C46.463,31.0389999999998 42.47,35.067 42.47,35.067 C42.174,35.3649999999998 41.7859999999999,35.5150000000003 41.398,35.5150000000003 C41.01,35.5150000000003 40.623,35.3649999999998 40.327,35.067 C39.735,34.4700000000003 39.735,33.5029999999997 40.327,32.9049999999997 C40.327,32.9049999999997 44.933,28.259 44.933,28.259 C45.3200000000001,27.8689999999997 45.884,27.7190000000001 46.4109999999999,27.8670000000002 C47.222,28.0940000000001 49.593,28.6840000000002 50.801,28.6850000000004 C50.805,28.6850000000004 50.808,28.6850000000004 50.811,28.6850000000004 C54.322,28.6850000000004 57.621,27.3059999999996 60.104,24.8010000000004 C62.588,22.2950000000001 63.956,18.9629999999997 63.956,15.4179999999997 C63.955,11.5879999999997 62.301,7.98099999999977 59.511,5.48800000000028 C59.511,5.48800000000028 59.5119999999999,15.4930000000004 59.5119999999999,15.4930000000004 C59.5119999999999,15.9949999999999 59.268,16.4650000000001 58.859,16.75 C58.859,16.75 51.667,21.7690000000002 51.667,21.7690000000002 C51.148,22.1319999999996 50.461,22.1310000000003 49.942,21.7690000000002 C49.942,21.7690000000002 42.753,16.7470000000003 42.753,16.7470000000003 C42.345,16.4620000000004 42.101,15.9920000000002 42.1,15.4920000000002 C42.1,15.4920000000002 42.096,5.48599999999988 42.096,5.48599999999988 C39.305,7.98099999999977 37.651,11.5910000000003 37.651,15.424 C37.651,17.3069999999998 38.075,19.1800000000003 38.909,20.9889999999996 C39.178,21.5709999999999 39.057,22.2600000000002 38.607,22.7150000000001 C38.607,22.7150000000001 37.356,23.9769999999999 37.356,23.9769999999999 C36.765,24.5739999999996 35.805,24.5739999999996 35.213,23.9769999999999 C34.621,23.3800000000001 34.621,22.4120000000003 35.213,21.8149999999996 C35.213,21.8149999999996 35.74,21.2839999999997 35.74,21.2839999999997 C34.997,19.3760000000002 34.621,17.4089999999997 34.621,15.424 C34.621,9.54699999999957 37.78,4.09599999999955 42.864,1.19899999999961 C43.3339999999999,0.93199999999979 43.908,0.9350000000004 44.373,1.20899999999983 C44.838,1.48300000000017 45.125,1.98599999999988 45.125,2.52900000000045 C45.125,2.52900000000045 45.131,14.6899999999996 45.131,14.6899999999996 C45.131,14.6899999999996 50.805,18.6530000000002 50.805,18.6530000000002 C50.805,18.6530000000002 56.481,14.692 56.481,14.692 C56.481,14.692 56.48,2.53300000000036 56.48,2.53300000000036 C56.48,1.98899999999958 56.766,1.48599999999988 57.231,1.21200000000044 C57.696,0.93900000000031 58.271,0.9340000000002 58.74,1.20100000000002 C63.825,4.09599999999955 66.985,9.54399999999987 66.986,15.4179999999997 C66.986,19.7790000000005 65.303,23.8789999999999 62.247,26.9620000000004 ZM38.681,28.2269999999999 C39.273,28.8239999999996 39.273,29.7910000000002 38.681,30.3890000000001 C38.681,30.3890000000001 36.144,32.9470000000001 36.144,32.9470000000001 C36.144,32.9470000000001 51.841,48.7799999999997 51.841,48.7799999999997 C51.841,48.7799999999997 56.186,50.3689999999997 56.186,50.3689999999997 C56.395,50.4459999999999 56.5839999999999,50.567 56.741,50.7259999999997 C56.741,50.7259999999997 65.548,59.6099999999997 65.548,59.6099999999997 C65.832,59.8959999999997 65.992,60.2849999999999 65.992,60.6899999999996 C65.992,61.0959999999995 65.832,61.4840000000004 65.548,61.7709999999997 C65.548,61.7709999999997 59.817,67.5519999999997 59.817,67.5519999999997 C59.522,67.8500000000004 59.134,68 58.746,68 C58.3579999999999,68 57.97,67.8500000000004 57.675,67.5519999999997 C57.675,67.5519999999997 48.867,58.6679999999997 48.867,58.6679999999997 C48.71,58.5100000000002 48.59,58.3180000000002 48.514,58.1080000000002 C48.514,58.1080000000002 46.939,53.7250000000004 46.939,53.7250000000004 C46.939,53.7250000000004 31.242,37.8919999999998 31.242,37.8919999999998 C31.242,37.8919999999998 28.706,40.4499999999998 28.706,40.4499999999998 C28.114,41.0469999999996 27.155,41.0469999999996 26.563,40.4499999999998 C26.114,39.9979999999996 26.005,39.3310000000001 26.2380000000001,38.7749999999996 C26.2380000000001,38.7749999999996 2.49599999999998,14.8270000000002 2.49599999999998,14.8270000000002 C1.05600000000004,13.375 0.26099999999997,11.4440000000004 0.25999999999999,9.39000000000033 C0.25900000000001,7.33399999999983 1.053,5.40099999999984 2.495,3.94599999999991 C3.93499999999995,2.49499999999989 5.84900000000005,1.69700000000012 7.88499999999999,1.69700000000012 C7.88900000000001,1.69700000000012 7.89099999999996,1.69700000000012 7.89400000000001,1.69700000000012 C9.93100000000004,1.69899999999961 11.843,2.5010000000002 13.279,3.95399999999972 C13.279,3.95399999999972 37.02,27.8990000000003 37.02,27.8990000000003 C37.571,27.665 38.232,27.7740000000003 38.681,28.2269999999999 ZM49.3200000000001,51.8040000000001 C49.477,51.9620000000004 49.597,52.1530000000002 49.673,52.3630000000003 C49.673,52.3630000000003 51.249,56.7470000000003 51.249,56.7470000000003 C51.249,56.7470000000003 58.746,64.3090000000002 58.746,64.3090000000002 C58.746,64.3090000000002 62.3339999999999,60.6899999999996 62.3339999999999,60.6899999999996 C62.3339999999999,60.6899999999996 54.836,53.1270000000004 54.836,53.1270000000004 C54.836,53.1270000000004 50.491,51.5379999999996 50.491,51.5379999999996 C50.282,51.4620000000004 50.093,51.3400000000001 49.936,51.1819999999998 C49.936,51.1819999999998 34.001,35.1090000000004 34.001,35.1090000000004 C34.001,35.1090000000004 33.385,35.7309999999998 33.385,35.7309999999998 C33.385,35.7309999999998 49.3200000000001,51.8040000000001 49.3200000000001,51.8040000000001 ZM11.134,6.11399999999958 C10.268,5.23800000000028 9.11699999999996,4.75500000000011 7.89099999999996,4.75399999999991 C7.88900000000001,4.75399999999991 7.88699999999994,4.75399999999991 7.88499999999999,4.75399999999991 C6.65800000000002,4.75399999999991 5.505,5.23400000000038 4.63699999999994,6.10900000000038 C3.76900000000001,6.98499999999967 3.28999999999996,8.14999999999964 3.29100000000005,9.38900000000012 C3.29200000000003,10.6260000000002 3.76999999999998,11.79 4.63900000000001,12.6660000000002 C4.63900000000001,12.6660000000002 28.302,36.5339999999997 28.302,36.5339999999997 C28.302,36.5339999999997 32.92,31.8770000000004 32.92,31.8770000000004 C32.923,31.8729999999996 32.927,31.8699999999999 32.93,31.8670000000002 C32.933,31.8630000000003 32.936,31.8599999999997 32.9400000000001,31.857 C32.9400000000001,31.857 34.799,29.9809999999998 34.799,29.9809999999998 C34.799,29.9809999999998 11.134,6.11399999999958 11.134,6.11399999999958 ZM28.7809999999999,31.9930000000004 C28.394,31.9930000000004 28.006,31.8440000000001 27.71,31.5450000000001 C27.71,31.5450000000001 6.80700000000002,10.4610000000002 6.80700000000002,10.4610000000002 C6.21500000000003,9.86399999999958 6.21500000000003,8.89599999999973 6.80700000000002,8.29899999999998 C7.39800000000002,7.70200000000023 8.35799999999995,7.70200000000023 8.95000000000005,8.29899999999998 C8.95000000000005,8.29899999999998 29.853,29.384 29.853,29.384 C30.444,29.9809999999998 30.444,30.9480000000003 29.853,31.5450000000001 C29.557,31.8440000000001 29.169,31.9930000000004 28.7809999999999,31.9930000000004 ZM5.88300000000004,61.6869999999999 C5.88199999999995,61.6850000000004 5.88,61.683 5.87800000000004,61.6809999999996 C5.154,60.9449999999997 5.15800000000002,59.7520000000004 5.88599999999997,59.0219999999999 C6.23199999999997,58.6710000000003 6.70100000000002,58.4740000000002 7.20000000000005,58.4740000000002 C7.20100000000002,58.4740000000002 7.20100000000002,58.4740000000002 7.20100000000002,58.4740000000002 C7.70000000000005,58.4740000000002 8.16899999999998,58.6700000000001 8.52099999999996,59.0259999999998 C9.24599999999998,59.7550000000001 9.24800000000005,60.9480000000003 8.52300000000002,61.683 C8.15700000000004,62.0510000000004 7.678,62.2349999999997 7.20000000000005,62.2349999999997 C6.72299999999996,62.2349999999997 6.24599999999998,62.0519999999997 5.88300000000004,61.6869999999999 ZM20.207,36.9530000000004 C20.798,36.3559999999998 21.758,36.3559999999998 22.35,36.9530000000004 C22.941,37.5500000000002 22.941,38.5169999999998 22.35,39.1139999999996 C22.35,39.1139999999996 4.26999999999998,57.3530000000001 4.26999999999998,57.3530000000001 C3.47900000000004,58.1480000000001 3.04399999999998,59.2039999999997 3.04300000000001,60.3299999999999 C3.04100000000005,61.4589999999998 3.476,62.5190000000002 4.26499999999999,63.317 C5.05499999999995,64.1130000000003 6.10500000000002,64.5519999999997 7.22199999999998,64.5519999999997 C7.22299999999996,64.5519999999997 7.22299999999996,64.5519999999997 7.22400000000005,64.5519999999997 C8.34100000000001,64.5519999999997 9.39099999999996,64.1120000000001 10.181,63.3149999999996 C10.181,63.3149999999996 31.201,42.1109999999999 31.201,42.1109999999999 C31.792,41.5150000000003 32.752,41.5150000000003 33.3440000000001,42.1109999999999 C33.9349999999999,42.7089999999998 33.9349999999999,43.6769999999997 33.3440000000001,44.2730000000001 C33.3440000000001,44.2730000000001 12.324,65.4759999999997 12.324,65.4759999999997 C10.962,66.8509999999997 9.15200000000004,67.6080000000002 7.226,67.6090000000004 C7.22400000000005,67.6090000000004 7.22299999999996,67.6090000000004 7.22199999999998,67.6090000000004 C5.29600000000005,67.6090000000004 3.48500000000001,66.8519999999999 2.12199999999996,65.4780000000001 C0.75900000000001,64.1009999999997 0.00999999999999,62.2719999999999 0.01199999999994,60.326 C0.01499999999999,58.384 0.76599999999996,56.5600000000004 2.12900000000002,55.1899999999996 C2.12900000000002,55.1899999999996 20.207,36.9530000000004 20.207,36.9530000000004 Z "/>
</svg>
